<?xml version="1.0" encoding="UTF-8"?>
<svg id="Capa_1" data-name="Capa 1" xmlns="http://www.w3.org/2000/svg" viewBox="0 0 1920 1080">
  <defs>
    <style>
      .cls-1 {
        fill: #00fbc5;
        stroke-width: 0px;
      }
    </style>
  </defs>
  <path class="cls-1" d="M315.5,200.5c-45.54,42.91-117.75,125.03-140,244-45.03,240.73,132.8,534.24,313,529,178.18-5.18,348.6-302.16,285-456-41.43-100.21-167.13-103.35-198-225-27.16-107.05,48.51-190,17-219-20.39-18.76-82.01-11.59-277,127Z"/>
  <path class="cls-1" d="M1016.5,129.5c-118.73,150.47-58.98,431.81,45,469,86.11,30.8,181.8-113.27,254-75,78.41,41.57-.68,229.39,80,287,83.03,59.28,314.92-33.85,390-212,69.59-165.13-20.75-343.52-115-437-176.54-175.09-518.94-203.16-654-32Z"/>
</svg>